<svg width="12" height="12" viewBox="0 0 12 12" fill="none" xmlns="http://www.w3.org/2000/svg">
<path fill-rule="evenodd" clip-rule="evenodd" d="M0.410704 0.410734C0.736141 0.0852972 1.26378 0.0852972 1.58921 0.410734L5.99996 4.82148L10.4107 0.410734C10.7361 0.0852972 11.2638 0.0852972 11.5892 0.410734C11.9147 0.736171 11.9147 1.26381 11.5892 1.58925L7.17847 5.99999L11.5892 10.4107C11.9147 10.7362 11.9147 11.2638 11.5892 11.5892C11.2638 11.9147 10.7361 11.9147 10.4107 11.5892L5.99996 7.1785L1.58921 11.5892C1.26378 11.9147 0.736141 11.9147 0.410704 11.5892C0.0852667 11.2638 0.0852667 10.7362 0.410704 10.4107L4.82145 5.99999L0.410704 1.58925C0.0852667 1.26381 0.0852667 0.736171 0.410704 0.410734Z" fill="#5D636F"/>
</svg>
